<svg width="1000" height="76" viewBox="0 0 1000 76" xmlns="http://www.w3.org/2000/svg" role="img" aria-label="Drawing set KC-001 to KC-040, revision 2026.07, Anadolu University — Software Engineering">
  <defs>
    <pattern id="g8" width="28" height="28" patternUnits="userSpaceOnUse">
      <path d="M28 0H0V28" fill="none" stroke="#331111" stroke-width="1"/>
    </pattern>
    <linearGradient id="frule" x1="0" y1="0" x2="1" y2="0">
      <stop offset="0" stop-color="#C8161D"/>
      <stop offset="1" stop-color="#C8161D" stop-opacity="0"/>
    </linearGradient>
    <style>
      .data { font-family:'SF Mono',Consolas,'Cascadia Code',monospace; }
      @keyframes breathe { 0%,100%{ opacity:.45; } 50%{ opacity:1; } }
      .reg { animation: breathe 4.5s ease-in-out infinite; }
      .reg:nth-of-type(2){ animation-delay:1.1s; }
      .reg:nth-of-type(3){ animation-delay:2.2s; }
      .reg:nth-of-type(4){ animation-delay:3.3s; }
      @media (prefers-reduced-motion: reduce) { *{ animation:none !important; } }
    </style>
  </defs>

  <rect width="1000" height="76" fill="#1E0A0A"/>
  <rect width="1000" height="76" fill="url(#g8)"/>
  <rect x="0.5" y="0.5" width="999" height="75" fill="none" stroke="#4A1A1C"/>
  <rect x="32" y="0" width="190" height="2" fill="url(#frule)"/>

  <text x="44" y="32" class="data" font-size="9.5" fill="#9E5A5C" letter-spacing="3">DRAWING SET</text>
  <text x="44" y="54" class="data" font-size="13" fill="#EBC7C7">KC-001 → KC-040</text>

  <text x="956" y="32" class="data" font-size="9.5" fill="#9E5A5C" letter-spacing="3" text-anchor="end">REVISION</text>
  <text x="956" y="54" class="data" font-size="13" fill="#C89195" text-anchor="end">2026.07 · ANADOLU UNIVERSITY</text>

  <line x1="480" y1="20" x2="480" y2="56" stroke="#4A1A1C"/>
  <line x1="520" y1="20" x2="520" y2="56" stroke="#4A1A1C"/>

  <g stroke="#7A2A2D" stroke-width="1.25">
    <path class="reg" d="M20 10 h12 M12 18 v12" fill="none"/>
    <path class="reg" d="M980 10 h-12 M988 18 v12" fill="none"/>
    <path class="reg" d="M20 66 h12 M12 58 v12" fill="none"/>
    <path class="reg" d="M980 66 h-12 M988 58 v12" fill="none"/>
  </g>
</svg>
